<svg width="512" height="512" viewBox="0 0 512 512" fill="none" xmlns="http://www.w3.org/2000/svg">
<g filter="url(#filter0_d)">
<path d="M113.734 322V151.375H168.695C183.773 151.375 197.328 154.812 209.359 161.688C221.391 168.484 230.766 178.133 237.484 190.633C244.281 203.055 247.719 217 247.797 232.469V240.32C247.797 255.945 244.477 269.969 237.836 282.391C231.273 294.734 221.977 304.422 209.945 311.453C197.992 318.406 184.633 321.922 169.867 322H113.734ZM154.867 183.133V290.359H169.164C180.961 290.359 190.023 286.18 196.352 277.82C202.68 269.383 205.844 256.883 205.844 240.32V232.938C205.844 216.453 202.68 204.031 196.352 195.672C190.023 187.312 180.805 183.133 168.695 183.133H154.867ZM268.891 322V151.375H323.852C338.93 151.375 352.484 154.812 364.516 161.688C376.547 168.484 385.922 178.133 392.641 190.633C399.438 203.055 402.875 217 402.953 232.469V240.32C402.953 255.945 399.633 269.969 392.992 282.391C386.43 294.734 377.133 304.422 365.102 311.453C353.148 318.406 339.789 321.922 325.023 322H268.891ZM310.023 183.133V290.359H324.32C336.117 290.359 345.18 286.18 351.508 277.82C357.836 269.383 361 256.883 361 240.32V232.938C361 216.453 357.836 204.031 351.508 195.672C345.18 187.312 335.961 183.133 323.852 183.133H310.023Z" fill="#222222"/>
<line x1="112" y1="361" x2="272" y2="361" stroke="#222222" stroke-width="16"/>
</g>
<defs>
<filter id="filter0_d" x="0" y="0" width="524" height="524" filterUnits="userSpaceOnUse" color-interpolation-filters="sRGB">
<feFlood flood-opacity="0" result="BackgroundImageFix"/>
<feColorMatrix in="SourceAlpha" type="matrix" values="0 0 0 0 0 0 0 0 0 0 0 0 0 0 0 0 0 0 127 0"/>
<feOffset dx="8" dy="8"/>
<feGaussianBlur stdDeviation="2"/>
<feColorMatrix type="matrix" values="0 0 0 0 0 0 0 0 0 0 0 0 0 0 0 0 0 0 0.15 0"/>
<feBlend mode="normal" in2="BackgroundImageFix" result="effect1_dropShadow"/>
<feBlend mode="normal" in="SourceGraphic" in2="effect1_dropShadow" result="shape"/>
</filter>
</defs>
</svg>
